<svg version="1.1"
   xmlns="http://www.w3.org/2000/svg" xmlns:xlink="http://www.w3.org/1999/xlink" xmlns:a="http://ns.adobe.com/AdobeSVGViewerExtensions/3.0/" viewBox="0 0 89 120.5" class="references-dangerdanger" >
  <g>
    <polygon fill="none" stroke="#fff" stroke-width="3.5" stroke-linejoin="bevel" stroke-miterlimit="10"
      points="1.7,52.4 31.4,1 61,52.4"/>
    <polygon fill="#fff" points="89,45.4 84.6,53 80.2,45.4   "/>
    <circle fill="#fff" cx="31.1" cy="43.3" r="2.5"/>
    <polyline fill="none" stroke="#fff" stroke-width="3.5" stroke-miterlimit="10"
      points="68.3,0.4 68.3,35.3 84.3,18.7 84.3,49.4"/>
    <line fill="none" stroke="#fff" stroke-width="4" stroke-linejoin="bevel" stroke-miterlimit="10" x1="31.3" y1="15.4" x2="31.3" y2="35.4"/>
  </g>
  <g>
    <path fill="#fff" d="M7.3,69.5c3.1,0,6.4,1.6,6.4,7.6v6.8c0,6-3.3,7.6-6.4,7.6H1.5V69.5L7.3,69.5z M10.9,77.4
      c0-3.9-1.7-5.2-3.6-5.2h-3v16.7h3c1.9,0,3.6-1.3,3.6-5.2V77.4z"/>
    <path fill="#fff" d="M25,85.5h-5.4L18,91.6h-2.8l5.3-22.1H24l5.3,22.1h-2.8L25,85.5z M24.6,82.7l-2.3-9.9l-2.4,9.9H24.6z"/>
    <path fill="#fff" d="M44.2,69.5v22.1h-2.7l-7.3-15.8v15.8h-2.7V69.5h2.7l7.3,15.8V69.5H44.2z"/>
    <path fill="#fff" d="M47.5,76.8c0-5.8,3.2-7.6,6.4-7.6c3.1,0,6.3,1.7,6.3,7.5V77h-2.7v-0.2c-0.1-3.7-1.8-4.9-3.6-4.9
      c-2,0-3.6,1.3-3.6,5.2v6.9c0,3.9,1.6,5.2,3.6,5.2c1.9,0,3.6-1.2,3.6-5.1v-1.8h-3.5v-2.7h6.2v4.7c0,5.9-3.3,7.6-6.4,7.6
      c-3.2,0-6.4-1.8-6.4-7.6V76.8z"/>
    <path fill="#fff" d="M66.4,72.2v6.8h6.5v2.7h-6.5v7.2h6.8v2.7h-9.6V69.5h9.6v2.7L66.4,72.2z"/>
    <path fill="#fff" d="M81,69.5c3.2,0,6.8,1.4,6.8,5.8v1.1c0,2.8-1.7,4.3-3.6,5l3.9,10.2h-2.9l-3.5-9.3h-3.1v9.3h-2.8V69.5
      L81,69.5z M85,75.7c0-2.8-1.9-3.6-3.7-3.6h-2.8v7.4h2.8c1.8,0,3.7-0.8,3.7-3.6V75.7z"/>
    <path fill="#fff" d="M7.3,98.2c3.1,0,6.4,1.6,6.4,7.6v6.8c0,6-3.3,7.6-6.4,7.6H1.5V98.2L7.3,98.2z M10.9,106
      c0-3.9-1.7-5.2-3.6-5.2h-3v16.7h3c1.9,0,3.6-1.3,3.6-5.2V106z"/>
    <path fill="#fff" d="M25,114.2h-5.4l-1.5,6.1h-2.8l5.3-22.1H24l5.3,22.1h-2.8L25,114.2z M24.6,111.4l-2.3-9.9l-2.4,9.9H24.6z"
      />
    <path fill="#fff" d="M44.2,98.2v22.1h-2.7l-7.3-15.8v15.8h-2.7V98.2h2.7l7.3,15.8V98.2H44.2z"/>
    <path fill="#fff" d="M47.5,105.5c0-5.8,3.2-7.6,6.4-7.6c3.1,0,6.3,1.7,6.3,7.5v0.3h-2.7v-0.2c-0.1-3.7-1.8-4.9-3.6-4.9
      c-2,0-3.6,1.3-3.6,5.2v6.9c0,3.9,1.6,5.2,3.6,5.2c1.9,0,3.6-1.2,3.6-5.1v-1.8h-3.5v-2.7h6.2v4.7c0,5.9-3.3,7.6-6.4,7.6
      c-3.2,0-6.4-1.8-6.4-7.6V105.5z"/>
    <path fill="#fff" d="M66.4,100.8v6.8h6.5v2.7h-6.5v7.2h6.8v2.7h-9.6V98.2h9.6v2.7L66.4,100.8z"/>
    <path fill="#fff" d="M81,98.2c3.2,0,6.8,1.4,6.8,5.8v1.1c0,2.8-1.7,4.3-3.6,5l3.9,10.2h-2.9l-3.5-9.3h-3.1v9.3h-2.8V98.2
      L81,98.2z M85,104.4c0-2.8-1.9-3.6-3.7-3.6h-2.8v7.4h2.8c1.8,0,3.7-0.8,3.7-3.6V104.4z"/>
  </g>
</svg>
