<svg xmlns="http://www.w3.org/2000/svg" height="120.5" width="89" viewBox="0 0 89 120.5" class="danger-sign">
  <path d="M61 54.4H1.7l-1.7-3L29.7 0h3.5l29.6 51.4-1.8 3zm-55.8-4h52.4L31.4 5 5.2 50.4zM88.7 45.4L84.3 53l-4.4-7.6z"/>
  <circle cx="31.1" cy="43.3" r="2.5"/>
  <path d="M86.3 49.4h-4V23.7l-16 16.6V.4h4v29.9l16-16.6zM29.3 15.4h4v20h-4z"/>
  <g>
    <path d="M7.3 69.5c3.1 0 6.4 1.6 6.4 7.6v6.8c0 6-3.3 7.6-6.4 7.6H1.5v-22h5.8zm3.6 7.9c0-3.9-1.7-5.2-3.6-5.2h-3v16.7h3c1.9 0 3.6-1.3 3.6-5.2v-6.3zM25 85.5h-5.4L18 91.6h-2.8l5.3-22.1H24l5.3 22.1h-2.8L25 85.5zm-.4-2.8l-2.3-9.9-2.4 9.9h4.7zM44.2 69.5v22.1h-2.7l-7.3-15.8v15.8h-2.7V69.5h2.7l7.3 15.8V69.5h2.7zM47.5 76.8c0-5.8 3.2-7.6 6.4-7.6 3.1 0 6.3 1.7 6.3 7.5v.3h-2.7v-.2c-.1-3.7-1.8-4.9-3.6-4.9-2 0-3.6 1.3-3.6 5.2V84c0 3.9 1.6 5.2 3.6 5.2 1.9 0 3.6-1.2 3.6-5.1v-1.8H54v-2.7h6.2v4.7c0 5.9-3.3 7.6-6.4 7.6-3.2 0-6.4-1.8-6.4-7.6v-7.5h.1zM66.4 72.2V79h6.5v2.7h-6.5v7.2h6.8v2.7h-9.6V69.5h9.6v2.7h-6.8zM81 69.5c3.2 0 6.8 1.4 6.8 5.8v1.1c0 2.8-1.7 4.3-3.6 5l3.9 10.2h-2.9l-3.5-9.3h-3.1v9.3h-2.8V69.5H81zm4 6.2c0-2.8-1.9-3.6-3.7-3.6h-2.8v7.4h2.8c1.8 0 3.7-.8 3.7-3.6v-.2zM7.3 98.2c3.1 0 6.4 1.6 6.4 7.6v6.8c0 6-3.3 7.6-6.4 7.6H1.5v-22h5.8zm3.6 7.8c0-3.9-1.7-5.2-3.6-5.2h-3v16.7h3c1.9 0 3.6-1.3 3.6-5.2V106zM25 114.2h-5.4l-1.5 6.1h-2.8l5.3-22.1H24l5.3 22.1h-2.8l-1.5-6.1zm-.4-2.8l-2.3-9.9-2.4 9.9h4.7zM44.2 98.2v22.1h-2.7l-7.3-15.8v15.8h-2.7V98.2h2.7l7.3 15.8V98.2h2.7zM47.5 105.5c0-5.8 3.2-7.6 6.4-7.6 3.1 0 6.3 1.7 6.3 7.5v.3h-2.7v-.2c-.1-3.7-1.8-4.9-3.6-4.9-2 0-3.6 1.3-3.6 5.2v6.9c0 3.9 1.6 5.2 3.6 5.2 1.9 0 3.6-1.2 3.6-5.1V111H54v-2.7h6.2v4.7c0 5.9-3.3 7.6-6.4 7.6-3.2 0-6.4-1.8-6.4-7.6v-7.5h.1zM66.4 100.8v6.8h6.5v2.7h-6.5v7.2h6.8v2.7h-9.6v-22h9.6v2.7l-6.8-.1zM81 98.2c3.2 0 6.8 1.4 6.8 5.8v1.1c0 2.8-1.7 4.3-3.6 5l3.9 10.2h-2.9l-3.5-9.3h-3.1v9.3h-2.8V98.2H81zm4 6.2c0-2.8-1.9-3.6-3.7-3.6h-2.8v7.4h2.8c1.8 0 3.7-.8 3.7-3.6v-.2z"/>
  </g>
</svg>
