<svg version="1.1"
   xmlns="http://www.w3.org/2000/svg" xmlns:xlink="http://www.w3.org/1999/xlink" xmlns:a="http://ns.adobe.com/AdobeSVGViewerExtensions/3.0/" viewBox="0 0 1191.9 172.1">
  <path fill="#fff" d="M86.4,2.2v168h-4.7V85.4h-77v84.8H0V2.2h4.7v78.8h77V2.2H86.4z"/>
  <path fill="#fff" d="M124.8,2.2h4.7v168h-4.7V2.2z"/>
  <path fill="#fff" d="M156,58.1C156,13.7,180.5,0,204.5,0c23,0,47.8,13,48.7,55.7v4.5h-4.7v-4.1c-1.4-40.9-23.1-51.7-44-51.7
    c-22.1,0-43.8,11.5-43.8,56v51.1c0,44.5,21.7,56,43.8,56c21.7,0,44-11.5,44-56V89h-41.1v-4.4h45.8V114c0,44.6-25.2,58.1-48.7,58.1
    c-24,0-48.5-13.7-48.5-58.1L156,58.1z"/>
  <path fill="#fff" d="M366,2.2v168h-4.7V85.4h-77v84.8h-4.7V2.2h4.7v78.8h77V2.2H366z"/>
  <path fill="#fff" d="M539.6,2.2l-49.5,168h-4.9l-49.5-168h4.7l47.3,160.4L534.9,2.2H539.6z"/>
  <path fill="#fff" d="M559.3,85.4L534.8,2.2h4.7l23.9,81L559.3,85.4z"/>
  <path fill="#fff" d="M589,58.1C589,13.7,613.5,0,637.5,0c23.5,0,48.7,13.4,48.7,58.1V114c0,44.6-25.2,58.1-48.7,58.1
    c-24,0-48.5-13.7-48.5-58.1V58.1z M681.5,60.5c0-44.5-22.4-56-44-56c-22.1,0-43.8,11.5-43.8,56v51.1c0,44.5,21.7,56,43.8,56
    c21.7,0,44-11.5,44-56V60.5z"/>
  <path fill="#fff" d="M783.9,165.7v4.4h-71.3V2.2h4.7v163.6H783.9z"/>
  <path fill="#fff" d="M856.3,6.6h-39.9v163.6h-4.7V6.6h-39.9V2.2h84.5V6.6z"/>
  <path fill="#fff" d="M984.3,58.1c0-44.4,24.5-58.1,48.5-58.1c23,0,47.8,13,48.7,55.7v4.2h-4.7v-3.7
    c-1.4-40.9-23.1-51.7-44-51.7c-22.1,0-43.8,11.5-43.8,56v51.1c0,44.5,21.7,56,43.8,56c21.7,0,44-11.5,44-56V89h-41.1v-4.4h45.8
    V114c0,44.6-25.2,58.1-48.7,58.1c-24,0-48.5-13.7-48.5-58.1L984.3,58.1z"/>
  <path fill="#fff" d="M1123.8,96.2v69.5h68v4.4h-72.7V96.3L1123.8,96.2z M1130.5,80.9h59v4.4h-58.9L1130.5,80.9z M1119.2,119.1
    V2.2h72.7v4.4l-68,0v112.3L1119.2,119.1z"/>
  <rect x="912.6" y="96.9" fill="#fff" width="4" height="21"/>
  <rect x="904.6" y="96.9" fill="#fff" width="4" height="21"/>
  <polygon fill="#fff" points="913.1,1.9 908.3,1.9 858.7,169.9 863.4,169.9 881.2,109.9 908.6,109.9 908.6,104.9 882.7,104.9
    910.7,9.8 938.7,104.9 912.6,104.9 912.6,109.9 940.2,109.9 958,169.9 962.6,169.9     "/>
  <path fill="#fff" d="M1177.7,53.4c1.4,0,3.1,0.9,3.1,3.3v0c0,3.1-4.4,3.5-4.8,6h4.7v1.4h-6.4v-0.8c0-3.9,5-4,5-6.6
    c0-1.4-0.9-1.9-1.7-1.9h-0.1c-0.8,0-1.6,0.6-1.8,1.9h-1.5l0-0.1c0.2-2.3,1.8-3.1,3.2-3.2H1177.7z"/>
  <path fill="#fff" d="M1182.6,57.3c0-3,1.7-3.9,3.3-3.9c1.6,0,3.3,0.9,3.3,3.9v3.1c0,3-1.7,3.9-3.3,3.9c-1.6,0-3.3-0.9-3.3-3.9
    V57.3z M1187.7,57.4c0-2-0.9-2.6-1.8-2.6c-1,0-1.8,0.6-1.8,2.6v2.8c0,2,0.8,2.6,1.8,2.6c1,0,1.8-0.6,1.8-2.6V57.4z"/>
  <path fill="#fff" d="M1174.5,71.3c0-3,1.7-3.9,3.3-3.9c1.6,0,3.3,0.9,3.3,3.9v3.1c0,3-1.7,3.9-3.3,3.9c-1.6,0-3.3-0.9-3.3-3.9
    V71.3z M1179.6,71.4c0-2-0.9-2.6-1.8-2.6c-1,0-1.8,0.6-1.8,2.6v2.8c0,2,0.8,2.6,1.8,2.6c1,0,1.8-0.6,1.8-2.6V71.4z"/>
  <path fill="#fff" d="M1186.3,67.4c1.3,0,3,0.7,3.1,2.9v0.2c0,1.1-0.7,1.9-1.5,2.2c0.9,0.3,1.5,1.2,1.5,2.4v0.2
    c0,2.1-1.6,3-3.1,3h-0.2c-1.4,0-3-0.9-3.2-3.2l0-0.1h1.4c0.2,1.4,1.1,1.9,1.9,1.9h0.1c0.9,0,1.7-0.6,1.7-1.6v-0.1
    c0-1.1-0.8-1.8-2-1.8h-0.9v-1.3h0.9c1,0,1.9-0.5,1.9-1.7v-0.1c0-1.1-1-1.5-1.6-1.5h-0.1c-0.8,0-1.6,0.5-1.8,1.8h-1.4l0-0.1
    c0.2-2.2,1.8-3,3.2-3.1L1186.3,67.4z"/>
  <path fill="#fff" d="M639.9,43.8v5.3h5.3v2.6h-5.3V57h-2.7v-5.3h-5.3v-2.6h5.3v-5.3H639.9z"/>
  <path fill="#fff" d="M644.1,110.7v2.6h-11.2v-2.6H644.1z"/>
  <circle fill="#fff" cx="127.2" cy="83.1" r="6.7"/>
  <circle fill="#fff" cx="1121.2" cy="83.1" r="6.7"/>
  <circle fill="#fff" cx="637.2" cy="83.1" r="6.7"/>
  <rect x="1123.6" y="80.9" fill="#fff" width="20.2" height="4.4"/>
  <path fill="#fff" d="M559.4,85.4v-4.4h77.7v4.4H559.4z"/>
  <rect x="380.2" y="165.4" fill="#fff" width="90.2" height="4.4"/>
</svg>
