<svg xmlns="http://www.w3.org/2000/svg" height="172.1" width="1191.9" viewBox="0 0 1191.9 172.1">
  <path d="M86.4 2.2v168h-4.7V85.4h-77v84.8H0V2.2h4.7V81h77V2.2h4.7zM124.8 2.2h4.7v168h-4.7V2.2zM156 58.1C156 13.7 180.5 0 204.5 0c23 0 47.8 13 48.7 55.7v4.5h-4.7v-4.1c-1.4-40.9-23.1-51.7-44-51.7-22.1 0-43.8 11.5-43.8 56v51.1c0 44.5 21.7 56 43.8 56 21.7 0 44-11.5 44-56V89h-41.1v-4.4h45.8V114c0 44.6-25.2 58.1-48.7 58.1-24 0-48.5-13.7-48.5-58.1V58.1zM366 2.2v168h-4.7V85.4h-77v84.8h-4.7V2.2h4.7V81h77V2.2h4.7zM539.6 2.2l-49.5 168h-4.9l-49.5-168h4.7l47.3 160.4L534.9 2.2h4.7z"/>
  <path d="M559.3 85.4L534.8 2.2h4.7l23.9 81-4.1 2.2zM589 58.1C589 13.7 613.5 0 637.5 0c23.5 0 48.7 13.4 48.7 58.1V114c0 44.6-25.2 58.1-48.7 58.1-24 0-48.5-13.7-48.5-58.1V58.1zm92.5 2.4c0-44.5-22.4-56-44-56-22.1 0-43.8 11.5-43.8 56v51.1c0 44.5 21.7 56 43.8 56 21.7 0 44-11.5 44-56V60.5zM783.9 165.7v4.4h-71.3V2.2h4.7v163.6h66.6zM856.3 6.6h-39.9v163.6h-4.7V6.6h-39.9V2.2h84.5v4.4zM984.3 58.1c0-44.4 24.5-58.1 48.5-58.1 23 0 47.8 13 48.7 55.7v4.2h-4.7v-3.7c-1.4-40.9-23.1-51.7-44-51.7-22.1 0-43.8 11.5-43.8 56v51.1c0 44.5 21.7 56 43.8 56 21.7 0 44-11.5 44-56V89h-41.1v-4.4h45.8V114c0 44.6-25.2 58.1-48.7 58.1-24 0-48.5-13.7-48.5-58.1V58.1zM1123.8 96.2v69.5h68v4.4h-72.7V96.3l4.7-.1zm6.7-15.3h59v4.4h-58.9l-.1-4.4zm-11.3 38.2V2.2h72.7v4.4h-68v112.3l-4.7.2zM912.6 96.9h4v21h-4zM904.6 96.9h4v21h-4z"/>
  <path d="M913.1 1.9h-4.8l-49.6 168h4.7l17.8-60h27.4v-5h-25.9l28-95.1 28 95.1h-26.1v5h27.6l17.8 60h4.6zM1177.7 53.4c1.4 0 3.1.9 3.1 3.3 0 3.1-4.4 3.5-4.8 6h4.7v1.4h-6.4v-.8c0-3.9 5-4 5-6.6 0-1.4-.9-1.9-1.7-1.9h-.1c-.8 0-1.6.6-1.8 1.9h-1.5v-.1c.2-2.3 1.8-3.1 3.2-3.2h.3zM1182.6 57.3c0-3 1.7-3.9 3.3-3.9 1.6 0 3.3.9 3.3 3.9v3.1c0 3-1.7 3.9-3.3 3.9-1.6 0-3.3-.9-3.3-3.9v-3.1zm5.1.1c0-2-.9-2.6-1.8-2.6-1 0-1.8.6-1.8 2.6v2.8c0 2 .8 2.6 1.8 2.6s1.8-.6 1.8-2.6v-2.8zM1174.5 71.3c0-3 1.7-3.9 3.3-3.9 1.6 0 3.3.9 3.3 3.9v3.1c0 3-1.7 3.9-3.3 3.9-1.6 0-3.3-.9-3.3-3.9v-3.1zm5.1.1c0-2-.9-2.6-1.8-2.6-1 0-1.8.6-1.8 2.6v2.8c0 2 .8 2.6 1.8 2.6s1.8-.6 1.8-2.6v-2.8zM1186.3 67.4c1.3 0 3 .7 3.1 2.9v.2c0 1.1-.7 1.9-1.5 2.2.9.3 1.5 1.2 1.5 2.4v.2c0 2.1-1.6 3-3.1 3h-.2c-1.4 0-3-.9-3.2-3.2V75h1.4c.2 1.4 1.1 1.9 1.9 1.9h.1c.9 0 1.7-.6 1.7-1.6v-.1c0-1.1-.8-1.8-2-1.8h-.9v-1.3h.9c1 0 1.9-.5 1.9-1.7v-.1c0-1.1-1-1.5-1.6-1.5h-.1c-.8 0-1.6.5-1.8 1.8h-1.4v-.1c.2-2.2 1.8-3 3.2-3.1h.1zM639.9 43.8v5.3h5.3v2.6h-5.3V57h-2.7v-5.3h-5.3v-2.6h5.3v-5.3h2.7zM644.1 110.7v2.6h-11.2v-2.6h11.2z"/>
  <circle cx="127.2" cy="83.1" r="6.7"/>
  <circle cx="1121.2" cy="83.1" r="6.7"/>
  <circle cx="637.2" cy="83.1" r="6.7"/>
  <path d="M1123.6 80.9h20.2v4.4h-20.2zM559.4 85.4V81h77.7v4.4h-77.7zM380.2 165.4h90.2v4.4h-90.2z"/>
</svg>
