<svg version="1.1"
   xmlns="http://www.w3.org/2000/svg" xmlns:xlink="http://www.w3.org/1999/xlink" xmlns:a="http://ns.adobe.com/AdobeSVGViewerExtensions/3.0/" viewBox="0 0 60 60" class="ralph">
  <defs>
  </defs>
  <path fill="#c52d2f" d="M26.7,21.2c0.9,0,1.6-0.7,1.6-1.6c0-0.9-0.7-1.6-1.6-1.6c-0.9,0-1.6,0.7-1.6,1.6
    C25.2,20.5,25.9,21.2,26.7,21.2z M26.7,18.8c0.4,0,0.8,0.4,0.8,0.8c0,0.4-0.4,0.8-0.8,0.8c-0.4,0-0.8-0.4-0.8-0.8
    C25.9,19.2,26.3,18.8,26.7,18.8z M33,21.2c0.9,0,1.6-0.7,1.6-1.6c0-0.9-0.7-1.6-1.6-1.6c-0.9,0-1.6,0.7-1.6,1.6
    C31.5,20.5,32.2,21.2,33,21.2z M33,18.8c0.4,0,0.8,0.4,0.8,0.8c0,0.4-0.4,0.8-0.8,0.8c-0.4,0-0.8-0.4-0.8-0.8
    C32.2,19.2,32.6,18.8,33,18.8z M29.9,0C13.4,0,0,13.4,0,29.9c0,16.5,13.4,29.9,29.9,29.9s29.9-13.4,29.9-29.9
    C59.7,13.4,46.4,0,29.9,0z M29.9,5.9c3.2,0,6,1.1,7.8,2.9l-0.7,1.1c-1.5-1.6-4.1-2.7-7-2.7c-2.9,0-5.5,1.1-7,2.7l-0.7-1.1
    C23.9,7,26.7,5.9,29.9,5.9z M34.7,11.2c-1.3-1-3-1.5-4.8-1.5c-1.8,0-3.6,0.5-4.8,1.5c-0.3,0.2-0.6,0.5-0.8,0.7l-0.7-1.1
    c1.4-1.5,3.8-2.4,6.4-2.4c2.6,0,4.8,0.9,6.3,2.3l-0.7,1.1C35.2,11.6,35,11.4,34.7,11.2z M34.8,12.9L34,13.9
    c-0.9-0.9-2.5-1.5-4.1-1.5c-1.7,0-3.2,0.6-4.2,1.5L25,12.9c1.2-1.1,2.9-1.7,4.9-1.7C31.8,11.2,33.6,11.8,34.8,12.9z M23.7,15.4H36
    c0.5,0,0.6,0.3,0.6,0.8v8c0,0.5-0.1,1.1-0.6,1.1H23.7c-0.5,0-1.1-0.6-1.1-1.1v-8C22.6,15.7,23.2,15.4,23.7,15.4z M42.6,44.2
    l-0.7-0.7c0.4-0.3,0.7-0.8,0.7-1.3c0-0.9-0.8-1.7-1.7-1.7c-0.9,0-1.7,0.8-1.7,1.7c0,0.6,0.3,1,0.7,1.3l-0.7,0.7c-0.6-0.5-1-1.2-1-2
    c0-0.7,0.2-1.7,0.7-1.7h-0.2v-9h-1v18.3l1,0.5v1.2h-8v-1.2l0.5-0.8h-0.5v-5h-2v5.3l1,0.5v1.5l-8,0v-1.5l0.7-0.7l-0.1-18.1h-1.6v9
    H21c0.4,0,0.7,1,0.7,1.7c0,0.8-0.4,1.6-1,2.1l-0.7-0.8c0.4-0.3,0.7-0.8,0.7-1.4c0-0.9-0.8-1.7-1.7-1.7c-0.9,0-1.7,0.8-1.7,1.7
    c0,0.5,0.3,1,0.7,1.3l-0.7,0.7c-0.6-0.5-1.1-1.2-1.1-2.1c0-0.7,0.6-1.3,0.6-1.8V27.1c0-0.5,0.5-0.9,1-0.9l24.1,0
    c0.5,0,0.8,0.4,0.8,0.9v13.2c1,0.5,0.8,1.1,0.8,1.8C43.4,42.9,43.2,43.7,42.6,44.2z"/>
</svg>
