<svg xmlns="http://www.w3.org/2000/svg" viewBox="84 44 430 756" class="usage-illustration-small">
  <text transform="translate(175.9899 460.5267)" fill="#414042">
    $ touch app/views/pages/about.html.erb
  </text>
  <text transform="translate(175.9899 521.4829)" fill="#414042">
    $ touch app/views/pages/contact.html.erb
  </text>
  <text transform="translate(175.9899 585.9104)" fill="#414042">
    $ touch app/views/pages/team.html.erb
  </text>
  <text transform="translate(175.9899 648.6022)" fill="#414042">
    $ touch app/views/pages/foo.html.erb
  </text>
  <text transform="translate(175.9899 709.5571)" fill="#414042">
    $ touch app/views/pages/love.html.erb
  </text>
  <text transform="translate(175.9899 773.985)" fill="#414042">
    $ touch app/views/pages/life.html.erb
  </text>
  <path fill="none" stroke="#414042" stroke-width="2" stroke-miterlimit="10" d="M127.5 154.4h24.3v21.5h-24.3zM190.2 154.4h24.3v21.5h-24.3zM252.9 154.4h24.3v21.5h-24.3zM315.6 154.4h24.3v21.5h-24.3zM378.3 154.4h24.3v21.5h-24.3zM440.9 154.4h24.3v21.5h-24.3z"/>
  <path fill="#F5F5F5" stroke="#414042" stroke-width="2" stroke-miterlimit="10" d="M89.6 49.9h418.8v114.5H89.6z"/>
  <text transform="translate(176.3678 100.6059)" fill="#414042">
    $ mkdir app/views/pages
  </text>
  <path fill="none" stroke="#414042" stroke-width="2" stroke-miterlimit="10" d="M140.2 164.1v207.1"/>
  <circle fill="#F5F5F5" stroke="#414042" stroke-width="2" stroke-miterlimit="10" cx="139.6" cy="165.3" r="4.5"/>
  <circle fill="#F5F5F5" stroke="#414042" stroke-width="2" stroke-miterlimit="10" cx="139.6" cy="371.2" r="4.5"/>
  <path fill="none" stroke="#414042" stroke-width="2" stroke-miterlimit="10" d="M202.9 164.1v193.5"/>
  <circle fill="#F5F5F5" stroke="#414042" stroke-width="2" stroke-miterlimit="10" cx="202.3" cy="165.3" r="4.5"/>
  <circle fill="#F5F5F5" stroke="#414042" stroke-width="2" stroke-miterlimit="10" cx="202.3" cy="357.6" r="4.5"/>
  <path fill="none" stroke="#414042" stroke-width="2" stroke-miterlimit="10" d="M265.5 164.1V344"/>
  <circle fill="#F5F5F5" stroke="#414042" stroke-width="2" stroke-miterlimit="10" cx="265" cy="165.3" r="4.5"/>
  <circle fill="#F5F5F5" stroke="#414042" stroke-width="2" stroke-miterlimit="10" cx="265" cy="344" r="4.5"/>
  <path fill="none" stroke="#414042" stroke-width="2" stroke-miterlimit="10" d="M328.2 164.1v166.2"/>
  <circle fill="#F5F5F5" stroke="#414042" stroke-width="2" stroke-miterlimit="10" cx="327.7" cy="165.3" r="4.5"/>
  <circle fill="#F5F5F5" stroke="#414042" stroke-width="2" stroke-miterlimit="10" cx="327.7" cy="330.3" r="4.5"/>
  <path fill="none" stroke="#414042" stroke-width="2" stroke-miterlimit="10" d="M390.9 164.1v152.6"/>
  <circle fill="#F5F5F5" stroke="#414042" stroke-width="2" stroke-miterlimit="10" cx="390.4" cy="165.3" r="4.5"/>
  <circle fill="#F5F5F5" stroke="#414042" stroke-width="2" stroke-miterlimit="10" cx="390.4" cy="316.7" r="4.5"/>
  <g>
    <path fill="none" stroke="#414042" stroke-width="2" stroke-miterlimit="10" d="M453.6 164.1v139"/>
    <circle fill="#F5F5F5" stroke="#414042" stroke-width="2" stroke-miterlimit="10" cx="453.1" cy="165.3" r="4.5"/>
    <circle fill="#F5F5F5" stroke="#414042" stroke-width="2" stroke-miterlimit="10" cx="453.1" cy="303.1" r="4.5"/>
  </g>
  <g>
    <path fill="#F5F5F5" d="M128.8 467v-17.3l7.5-7.5h10.1V467z"/>
    <path fill="#414042" d="M145.1 443.6v22.2h-14.9v-15.4l6.8-6.8h8.1m2.7-2.7H135.9l-.8.8-6.8 6.8-.7.7v19.3h20.3V440.9h-.1z"/>
    <path fill="#414042" d="M137 443.6v6.8h-6.8"/>
  </g>
  <g>
    <path fill="#F5F5F5" d="M128.8 529.9v-17.6l7.5-7.5h10.1v25.1z"/>
    <path fill="#414042" d="M145.1 506.1v22.2h-14.9V513l6.8-6.8h8.1m2.7-2.8H135.9l-.8.8-6.8 6.8-.7.7V531h20.3V503.4h-.1z"/>
    <path fill="#414042" d="M137 506.1v6.9h-6.8"/>
  </g>
  <g>
    <path fill="#F5F5F5" d="M128.8 592.5v-17.4l7.5-7.6h10.1v25z"/>
    <path fill="#414042" d="M145.1 569v22.2h-14.9v-15.4l6.8-6.8h8.1m2.7-2.9H135.9l-.8.8-6.8 6.8-.7.7v19.3h20.3V566.1h-.1z"/>
    <path fill="#414042" d="M137 569v6.8h-6.8"/>
  </g>
  <g>
    <path fill="#F5F5F5" d="M128.8 655.2v-17.4l7.5-7.5h10.1v24.9z"/>
    <path fill="#414042" d="M145.1 631.7v22.2h-14.9v-15.4l6.8-6.8h8.1m2.7-2.8H135.9l-.8.8-6.8 6.8-.7.7v19.3h20.3V628.9h-.1z"/>
    <path fill="#414042" d="M137 631.7v6.8h-6.8"/>
  </g>
  <g>
    <path fill="#F5F5F5" d="M128.8 717.9v-17.4l7.5-7.5h10.1v24.9z"/>
    <path fill="#414042" d="M145.1 694.4v22.2h-14.9v-15.4l6.8-6.8h8.1m2.7-2.8H135.9l-.8.8-6.8 6.8-.7.7v19.3h20.3V691.6h-.1z"/>
    <path fill="#414042" d="M137 694.4v6.8h-6.8"/>
  </g>
  <g>
    <path fill="#F5F5F5" d="M128.8 780.6v-17.4l7.5-7.5h10.1v24.9z"/>
    <path fill="#414042" d="M145.1 757v22.2h-14.9v-15.4l6.8-6.8h8.1m2.7-2.7H135.9l-.8.8-6.8 6.8-.7.7v19.3h20.3V754.3h-.1z"/>
    <path fill="#414042" d="M137 757v6.9h-6.8"/>
  </g>
  <path fill="#F5F5F5" stroke="#414042" stroke-width="2" stroke-miterlimit="10" d="M125.7 75.5l-3.3-5.5h-13.6v40.9h51.8V75.5z"/>
</svg>
