<svg xmlns="http://www.w3.org/2000/svg" height="413" width="1174.1" viewBox="0 0 1174.1 413" class="usage-illustration-large">
  <text transform="translate(35.5821 177.1818)" fill="#414042">
    $ touch app/views/pages/about.html.erb
  </text>
  <text transform="translate(35.5821 221.9079)" fill="#414042">
    $ touch app/views/pages/contact.html.erb
  </text>
  <text transform="translate(35.5821 269.1819)" fill="#414042">
    $ touch app/views/pages/team.html.erb
  </text>
  <text transform="translate(35.5821 315.1819)" fill="#414042">
    $ touch app/views/pages/foo.html.erb
  </text>
  <text transform="translate(35.5821 359.9079)" fill="#414042">
    $ touch app/views/pages/love.html.erb
  </text>
  <text transform="translate(35.5821 407.1819)" fill="#414042">
    $ touch app/views/pages/life.html.erb
  </text>
  <path fill="none" stroke="#414042" stroke-width="2" stroke-miterlimit="10" d="M893.6 77.7h17.8v15.8h-17.8zM939.6 77.7h17.8v15.8h-17.8zM985.6 77.7h17.8v15.8h-17.8zM1031.6 77.7h17.8v15.8h-17.8zM1077.6 77.7h17.8v15.8h-17.8zM1123.6 77.7h17.8v15.8h-17.8z"/>
  <path fill="#F5F5F5" stroke="#414042" stroke-width="2" stroke-miterlimit="10" d="M865.8 1h307.3v84H865.8z"/>
  <path fill="none" d="M510.5 36.5h312.4v32.4H510.5z"/>
  <text transform="translate(540.4685 49.2399)" fill="#414042">
    $ mkdir app/views/pages
  </text>
  <g fill="none" stroke="#414042" stroke-width="2" stroke-miterlimit="10">
    <path d="M858.9 44.8h-47"/>
    <circle cx="866.1" cy="44.6" r="3.3"/>
  </g>
  <path fill="none" stroke="#414042" stroke-width="2" stroke-miterlimit="10" d="M902.9 84.8v317"/>
  <circle fill="#F5F5F5" stroke="#414042" stroke-width="2" stroke-miterlimit="10" cx="902.5" cy="85.7" r="3.3"/>
  <path fill="none" stroke="#414042" stroke-width="2" stroke-miterlimit="10" d="M948.9 84.8v133"/>
  <circle fill="#F5F5F5" stroke="#414042" stroke-width="2" stroke-miterlimit="10" cx="948.5" cy="85.7" r="3.3"/>
  <path fill="none" stroke="#414042" stroke-width="2" stroke-miterlimit="10" d="M994.9 84.8v179"/>
  <circle fill="#F5F5F5" stroke="#414042" stroke-width="2" stroke-miterlimit="10" cx="994.5" cy="85.7" r="3.3"/>
  <path fill="none" stroke="#414042" stroke-width="2" stroke-miterlimit="10" d="M1040.9 84.8v225"/>
  <circle fill="#F5F5F5" stroke="#414042" stroke-width="2" stroke-miterlimit="10" cx="1040.5" cy="85.7" r="3.3"/>
  <path fill="none" stroke="#414042" stroke-width="2" stroke-miterlimit="10" d="M1086.9 84.8v271"/>
  <circle fill="#F5F5F5" stroke="#414042" stroke-width="2" stroke-miterlimit="10" cx="1086.5" cy="85.7" r="3.3"/>
  <path fill="none" stroke="#414042" stroke-width="2" stroke-miterlimit="10" d="M1132.9 84.8v87"/>
  <circle fill="#F5F5F5" stroke="#414042" stroke-width="2" stroke-miterlimit="10" cx="1132.5" cy="85.7" r="3.3"/>
  <path fill="none" stroke="#414042" stroke-width="2" stroke-miterlimit="10" d="M635.9 401.8h267"/>
  <circle fill="#F5F5F5" stroke="#414042" stroke-width="2" stroke-miterlimit="10" cx="637.1" cy="402.1" r="3.3"/>
  <path fill="none" stroke="#414042" stroke-width="2" stroke-miterlimit="10" d="M635.9 355.8h451"/>
  <circle fill="#F5F5F5" stroke="#414042" stroke-width="2" stroke-miterlimit="10" cx="637.1" cy="356.1" r="3.3"/>
  <path fill="none" stroke="#414042" stroke-width="2" stroke-miterlimit="10" d="M635.9 309.8h405"/>
  <circle fill="#F5F5F5" stroke="#414042" stroke-width="2" stroke-miterlimit="10" cx="637.1" cy="310.1" r="3.3"/>
  <path fill="none" stroke="#414042" stroke-width="2" stroke-miterlimit="10" d="M635.9 263.8h359"/>
  <circle fill="#F5F5F5" stroke="#414042" stroke-width="2" stroke-miterlimit="10" cx="637.1" cy="264.1" r="3.3"/>
  <path fill="none" stroke="#414042" stroke-width="2" stroke-miterlimit="10" d="M635.9 217.8h313"/>
  <circle fill="#F5F5F5" stroke="#414042" stroke-width="2" stroke-miterlimit="10" cx="637.1" cy="218.1" r="3.3"/>
  <path fill="none" stroke="#414042" stroke-width="2" stroke-miterlimit="10" d="M635.9 171.8h497"/>
  <circle fill="#F5F5F5" stroke="#414042" stroke-width="2" stroke-miterlimit="10" cx="637.1" cy="172.1" r="3.3"/>
  <path fill-rule="evenodd" clip-rule="evenodd" fill="#F5F5F5" d="M1 182v-12.8l5.5-5.5h7.4V182z"/>
  <path fill="#414042" d="M12.9 164.7V181H2v-11.3l5-5h5.9m2-2H6.1l-.6.6-5 5-.5.5V183h14.9v-20.3z"/>
  <path fill-rule="evenodd" clip-rule="evenodd" fill="#414042" d="M7 164.7v5H2"/>
  <path fill-rule="evenodd" clip-rule="evenodd" fill="#F5F5F5" d="M1 228v-12.8l5.5-5.5h7.4V228z"/>
  <path fill="#414042" d="M12.9 210.7V227H2v-11.3l5-5h5.9m2-2H6.1l-.6.6-5 5-.5.5V229h14.9v-20.3z"/>
  <path fill-rule="evenodd" clip-rule="evenodd" fill="#414042" d="M7 210.7v5H2"/>
  <path fill-rule="evenodd" clip-rule="evenodd" fill="#F5F5F5" d="M1 274v-12.8l5.5-5.5h7.4V274z"/>
  <path fill="#414042" d="M12.9 256.7V273H2v-11.3l5-5h5.9m2-2H6.1l-.6.6-5 5-.5.5V275h14.9v-20.3z"/>
  <path fill-rule="evenodd" clip-rule="evenodd" fill="#414042" d="M7 256.7v5H2"/>
  <path fill-rule="evenodd" clip-rule="evenodd" fill="#F5F5F5" d="M1 320v-12.8l5.5-5.5h7.4V320z"/>
  <path fill="#414042" d="M12.9 302.7V319H2v-11.3l5-5h5.9m2-2H6.1l-.6.6-5 5-.5.5V321h14.9v-20.3z"/>
  <path fill-rule="evenodd" clip-rule="evenodd" fill="#414042" d="M7 302.7v5H2"/>
  <path fill-rule="evenodd" clip-rule="evenodd" fill="#F5F5F5" d="M1 366v-12.8l5.5-5.5h7.4V366z"/>
  <path fill="#414042" d="M12.9 348.7V365H2v-11.3l5-5h5.9m2-2H6.1l-.6.6-5 5-.5.5V367h14.9v-20.3z"/>
  <path fill-rule="evenodd" clip-rule="evenodd" fill="#414042" d="M7 348.7v5H2"/>
  <path fill-rule="evenodd" clip-rule="evenodd" fill="#F5F5F5" d="M1 412v-12.8l5.5-5.5h7.4V412z"/>
  <path fill="#414042" d="M12.9 394.7V411H2v-11.3l5-5h5.9m2-2H6.1l-.6.6-5 5-.5.5V413h14.9v-20.3z"/>
  <path fill-rule="evenodd" clip-rule="evenodd" fill="#414042" d="M7 394.7v5H2"/>
  <path fill-rule="evenodd" clip-rule="evenodd" fill="#F5F5F5" stroke="#414042" stroke-width="2" stroke-miterlimit="10" d="M892.3 19.8l-2.4-4h-10v30h38v-26z"/>
  <path fill="#414042" d="M854.3 48.5l8.6-3.7-8.6-3.6z"/>
</svg>
